<svg width="68" height="77" viewBox="0 0 68 77" fill="none" xmlns="http://www.w3.org/2000/svg">
<path d="M27.9773 45.9091H41.6136L47.4091 53.3068L55.0114 62.0341L66.7045 76.4545H51.4318L43.25 66.6705L38.4091 59.7159L27.9773 45.9091ZM67.1818 36.0909C67.1818 43.7727 65.7045 50.2841 62.75 55.625C59.7955 60.9659 55.7955 65.0227 50.75 67.7955C45.7273 70.5682 40.0909 71.9545 33.8409 71.9545C27.5682 71.9545 21.9205 70.5568 16.8977 67.7614C11.875 64.9659 7.88636 60.9091 4.93182 55.5909C2 50.25 0.534091 43.75 0.534091 36.0909C0.534091 28.4091 2 21.8977 4.93182 16.5568C7.88636 11.2159 11.875 7.15909 16.8977 4.38636C21.9205 1.61363 27.5682 0.22727 33.8409 0.22727C40.0909 0.22727 45.7273 1.61363 50.75 4.38636C55.7955 7.15909 59.7955 11.2159 62.75 16.5568C65.7045 21.8977 67.1818 28.4091 67.1818 36.0909ZM49.9318 36.0909C49.9318 31.5455 49.2841 27.7045 47.9886 24.5682C46.7159 21.4318 44.875 19.0568 42.4659 17.4432C40.0795 15.8295 37.2045 15.0227 33.8409 15.0227C30.5 15.0227 27.625 15.8295 25.2159 17.4432C22.8068 19.0568 20.9545 21.4318 19.6591 24.5682C18.3864 27.7045 17.75 31.5455 17.75 36.0909C17.75 40.6364 18.3864 44.4773 19.6591 47.6136C20.9545 50.75 22.8068 53.125 25.2159 54.7386C27.625 56.3523 30.5 57.1591 33.8409 57.1591C37.2045 57.1591 40.0795 56.3523 42.4659 54.7386C44.875 53.125 46.7159 50.75 47.9886 47.6136C49.2841 44.4773 49.9318 40.6364 49.9318 36.0909Z" fill="#4D915C"/>
</svg>
